<svg xmlns="http://www.w3.org/2000/svg" xmlns:xlink="http://www.w3.org/1999/xlink" width="344" height="203" viewBox="0 0 344 203">
  <defs>
    <filter id="Union_65" x="0" y="0" width="344" height="203" filterUnits="userSpaceOnUse">
      <feOffset dx="1" dy="12" input="SourceAlpha"/>
      <feGaussianBlur stdDeviation="15" result="blur"/>
      <feFlood flood-color="#6d8dad" flood-opacity="0.2"/>
      <feComposite operator="in" in2="blur"/>
      <feComposite in="SourceGraphic"/>
    </filter>
  </defs>
  <g id="Group_30" data-name="Group 30" transform="translate(-1527.793 -17)">
    <g transform="matrix(1, 0, 0, 1, 1527.79, 17)" filter="url(#Union_65)">
      <path id="Union_65-2" data-name="Union 65" d="M124.829,90.183a35.852,35.852,0,0,1-58.533-6.7,35.191,35.191,0,1,1-42.044-49.9,29.847,29.847,0,0,1,58.148.272,35.853,35.853,0,0,1,36.327,3.161q-.042-.869-.042-1.748a35.144,35.144,0,0,1,68.891-9.93A41.279,41.279,0,1,1,212.8,99.349a41.009,41.009,0,0,1-29.364-12.34,29.849,29.849,0,0,1-58.607,3.174Z" transform="translate(298 146) rotate(180)" fill="#fff"/>
    </g>
    <text id="View_Brochure" data-name="View Brochure" transform="translate(1699 114)" fill="#2c3190" font-size="28" font-family="HennyPenny-Regular, Henny Penny"><tspan x="-92" y="0">View Brochure</tspan></text>
  </g>
</svg>
