<svg width="2129" height="364" viewBox="0 0 2129 364" fill="none" xmlns="http://www.w3.org/2000/svg">
<g filter="url(#filter0_d_606_6)">
<path d="M550.552 276.322C532.135 289.544 509.755 296.082 487.116 294.853C464.478 293.624 442.937 284.702 426.06 269.563C416.203 283.335 403.057 294.422 387.819 301.815C372.582 309.208 355.737 312.672 338.819 311.891C321.901 311.109 305.447 306.108 290.955 297.343C276.464 288.577 264.395 276.326 255.849 261.704C244.612 269.093 231.453 273.021 218.005 272.999C215.605 272.999 213.206 272.876 210.818 272.629C203.547 286.174 191.961 296.904 177.898 303.115C163.836 309.327 148.101 310.665 133.192 306.917C118.282 303.169 105.051 294.551 95.5969 282.428C86.1428 270.305 81.0073 255.373 81.005 239.999C81.005 239.11 81.0217 238.226 81.055 237.345C67.3961 231.231 55.5217 221.735 46.5539 209.755C37.5861 197.775 31.821 183.706 29.8035 168.878C27.786 154.049 29.5827 138.952 35.0238 125.011C40.4649 111.07 49.3707 98.7472 60.8996 89.2061C72.4286 79.6651 86.1998 73.2212 100.912 70.4834C115.624 67.7457 130.792 68.8044 144.981 73.5596C159.17 78.3148 171.913 86.6094 182.005 97.6597C192.096 108.71 199.203 122.151 202.655 136.712C212.886 134.391 223.511 134.428 233.725 136.821C243.94 139.214 253.476 143.899 261.612 150.522C270.079 138.963 280.898 129.327 293.357 122.249C305.815 115.171 319.631 110.81 333.895 109.454C348.16 108.098 362.55 109.777 376.119 114.382C389.688 118.986 402.128 126.41 412.622 136.167C423.564 121.442 438.362 110.027 455.383 103.183C472.405 96.34 490.986 94.334 509.076 97.3872C527.165 100.44 544.059 108.434 557.891 120.485C571.723 132.536 581.956 148.175 587.458 165.676C598.746 157.585 611.6 151.94 625.195 149.103C638.791 146.266 652.829 146.298 666.411 149.199C675.945 131.073 690.838 116.328 709.06 106.978C727.282 97.6274 747.945 94.1258 768.23 96.9509C788.515 99.7759 807.434 108.79 822.408 122.763C837.381 136.737 847.68 154.989 851.898 175.031C852.597 175.01 853.3 174.999 854.005 174.999C865.796 175 877.391 178.023 887.682 183.778C897.973 189.534 906.617 197.831 912.79 207.878C918.963 217.925 922.458 229.385 922.942 241.167C923.426 252.948 920.883 264.657 915.555 275.176C910.227 285.695 902.292 294.673 892.508 301.254C882.724 307.835 871.416 311.798 859.665 312.766C847.913 313.734 836.11 311.675 825.381 306.784C814.651 301.893 805.354 294.335 798.377 284.829C778.285 294.66 755.475 297.466 733.599 292.798C724.448 310.195 710.351 324.493 693.086 333.889C675.82 343.285 656.159 347.359 636.581 345.597C617.004 343.834 598.386 336.315 583.076 323.986C567.766 311.658 556.449 295.072 550.552 276.321V276.322ZM1478.06 305.151C1458.19 312.217 1436.94 314.558 1416.01 311.986C1395.08 309.415 1375.03 302.003 1357.46 290.337C1346.47 304.184 1332 314.854 1315.52 321.252C1299.04 327.649 1281.16 329.543 1263.7 326.738C1246.25 323.933 1229.86 316.531 1216.22 305.293C1202.57 294.054 1192.17 279.385 1186.07 262.793C1184.07 262.93 1182.04 262.998 1180.01 262.999C1160.62 263.03 1141.77 256.629 1126.41 244.799C1119.84 265.834 1106.6 284.159 1088.7 297.01C1070.8 309.86 1049.2 316.536 1027.17 316.032C1005.14 315.527 983.868 307.868 966.573 294.211C949.279 280.555 936.897 261.642 931.297 240.329C925.697 219.015 927.184 196.459 935.533 176.065C943.881 155.671 958.638 138.547 977.576 127.278C996.514 116.01 1018.6 111.209 1040.51 113.6C1062.42 115.991 1082.95 125.445 1099.01 140.533C1105.44 125.428 1115.97 112.422 1129.41 102.987C1142.85 93.551 1158.66 88.061 1175.05 87.1368C1191.44 86.2126 1207.77 89.8911 1222.18 97.7567C1236.59 105.622 1248.51 117.362 1256.6 131.648C1272.46 127.93 1288.99 128.13 1304.75 132.231C1314.07 105.971 1331.25 83.2192 1353.96 67.0741C1376.67 50.9289 1403.81 42.1745 1431.67 42.0026C1459.53 41.8307 1486.77 50.2496 1509.68 66.1133C1532.59 81.9769 1550.05 104.515 1559.69 130.658C1566.53 131.921 1573.22 133.903 1579.64 136.57C1597.45 125.706 1618.21 120.709 1639.01 122.284C1659.81 123.86 1679.59 131.929 1695.56 145.351C1701.12 135.407 1709.83 127.59 1720.31 123.123C1730.8 118.657 1742.47 117.794 1753.49 120.669C1764.52 123.544 1774.28 129.996 1781.25 139.013C1788.22 148.03 1792 159.103 1792.01 170.499C1792.01 172.277 1791.91 174.054 1791.73 175.823C1799.02 177.142 1805.93 180.025 1812 184.274C1813.83 173.704 1818.09 163.706 1824.46 155.071C1830.82 146.437 1839.11 139.405 1848.67 134.532C1858.22 129.66 1868.78 127.081 1879.51 127C1890.24 126.92 1900.84 129.34 1910.46 134.068C1922.14 116.149 1939.18 102.377 1959.15 94.7168C1979.12 87.0567 2001 85.9004 2021.67 91.4128C2042.33 96.9253 2060.73 108.825 2074.23 125.413C2087.73 142.001 2095.65 162.431 2096.85 183.785C2098.06 205.14 2092.48 226.329 2080.93 244.328C2069.37 262.327 2052.43 276.216 2032.51 284.014C2012.59 291.811 1990.72 293.118 1970.02 287.748C1949.32 282.378 1930.84 270.606 1917.22 254.111C1903.89 262.646 1888.03 266.337 1872.29 264.566C1856.56 262.796 1841.92 255.671 1830.81 244.386C1827.42 253.542 1821.49 261.545 1813.72 267.463C1805.95 273.381 1796.66 276.969 1786.93 277.811C1783.31 285.351 1777.9 291.895 1771.18 296.876C1764.46 301.857 1756.62 305.125 1748.35 306.399C1740.08 307.672 1731.63 306.913 1723.72 304.185C1715.81 301.458 1708.68 296.845 1702.96 290.745C1689.06 305.067 1671.19 314.887 1651.65 318.931C1632.11 322.976 1611.81 321.059 1593.37 313.429C1575.68 324.223 1555.06 329.228 1534.39 327.744C1513.72 326.26 1494.03 318.362 1478.06 305.151V305.151Z" fill="white"/>
</g>
<defs>
<filter id="filter0_d_606_6" x="0" y="0" width="2128.01" height="363.997" filterUnits="userSpaceOnUse" color-interpolation-filters="sRGB">
<feFlood flood-opacity="0" result="BackgroundImageFix"/>
<feColorMatrix in="SourceAlpha" type="matrix" values="0 0 0 0 0 0 0 0 0 0 0 0 0 0 0 0 0 0 127 0" result="hardAlpha"/>
<feOffset dx="1" dy="-12"/>
<feGaussianBlur stdDeviation="15"/>
<feColorMatrix type="matrix" values="0 0 0 0 0.427451 0 0 0 0 0.552941 0 0 0 0 0.678431 0 0 0 0.2 0"/>
<feBlend mode="normal" in2="BackgroundImageFix" result="effect1_dropShadow_606_6"/>
<feBlend mode="normal" in="SourceGraphic" in2="effect1_dropShadow_606_6" result="shape"/>
</filter>
</defs>
</svg>
