<svg width="1994" height="341" viewBox="0 0 1994 341" fill="none" xmlns="http://www.w3.org/2000/svg">
<path d="M116.651 251.879C102.837 253.963 88.7422 253.174 75.2478 249.56C61.7535 245.946 49.1504 239.585 38.2273 230.876C27.3043 222.168 18.2964 211.298 11.7676 198.947C5.23871 186.597 1.32944 173.032 0.284416 159.101C-0.760606 145.171 1.08112 131.174 5.69432 117.988C10.3075 104.802 17.5929 92.7096 27.0944 82.4686C36.596 72.2276 48.1091 64.0581 60.9132 58.4713C73.7174 52.8846 87.5369 50.001 101.507 50.001C114.838 49.9843 128.04 52.6018 140.357 57.7032C152.673 62.8045 163.86 70.2891 173.275 79.727C180.775 62.5398 192.979 47.821 208.479 37.266C223.979 26.711 242.145 20.7491 260.885 20.0671C279.626 19.3851 298.177 24.0108 314.404 33.4112C330.63 42.8116 343.871 56.6045 352.601 73.201C369.73 69.542 387.522 70.4614 404.183 75.8666C420.845 81.2718 435.787 90.9719 447.507 103.99C453.938 95.2903 462.324 88.2244 471.988 83.3625C481.653 78.5006 492.325 75.979 503.143 76.0012C513.962 76.0234 524.624 78.5888 534.268 83.4902C543.913 88.3917 552.27 95.492 558.665 104.218C568.012 86.4699 582.406 71.888 600.032 62.3121C617.658 52.7362 637.725 48.5954 657.701 50.4121C677.678 52.2289 696.669 59.9218 712.278 72.5201C727.887 85.1185 739.415 102.058 745.407 121.201C760.768 109.371 779.619 102.97 799.007 103.001C801.047 103.001 803.07 103.07 805.075 103.207C810.4 88.7157 819.022 75.6616 830.261 65.0769C841.5 54.4921 855.048 46.6667 869.832 42.2195C884.616 37.7722 900.232 36.8249 915.446 39.4524C930.659 42.08 945.053 48.2104 957.489 57.359C963.561 41.0243 974.345 26.8593 988.475 16.6584C1002.6 6.45744 1019.44 0.679453 1036.86 0.0563159C1054.27 -0.566821 1071.48 3.99292 1086.31 13.158C1101.13 22.323 1112.9 35.681 1120.12 51.54C1122.9 51.18 1125.7 50.9999 1128.51 51.001C1138.21 50.9916 1147.79 53.1755 1156.53 57.3895C1165.27 61.6035 1172.94 67.7385 1178.98 75.336C1189.92 64.0237 1203.39 55.4672 1218.27 50.3689C1233.16 45.2707 1249.05 43.776 1264.63 46.0075C1280.21 48.239 1295.03 54.1332 1307.89 63.2061C1320.75 72.2791 1331.28 84.2722 1338.6 98.201C1355.73 94.5409 1373.52 95.4597 1390.19 100.865C1406.85 106.27 1421.79 115.971 1433.51 128.99C1443.92 114.916 1459.28 105.322 1476.49 102.147C1493.71 98.9721 1511.48 102.455 1526.22 111.89C1534.86 101.427 1545.51 92.8018 1557.53 86.5237C1569.56 80.2457 1582.72 76.4423 1596.25 75.3384C1609.77 74.2345 1623.37 75.8525 1636.26 80.0968C1649.15 84.3411 1661.05 91.1254 1671.27 100.049C1679.75 95.0403 1689.26 92.0228 1699.08 91.224C1705.03 71.1717 1717.15 53.5034 1733.71 40.7277C1750.27 27.9519 1770.44 20.7179 1791.34 20.0527C1812.25 19.3876 1832.83 25.325 1850.17 37.0221C1867.51 48.7192 1880.73 65.5815 1887.94 85.215C1890.11 85.0723 1892.3 85.001 1894.51 85.001C1912.7 85.0063 1930.54 89.9978 1946.09 99.4328C1961.64 108.868 1974.31 122.385 1982.71 138.516C1991.12 154.647 1994.94 172.773 1993.77 190.925C1992.6 209.077 1986.47 226.559 1976.05 241.472C1965.64 256.385 1951.33 268.158 1934.7 275.51C1918.06 282.863 1899.72 285.514 1881.69 283.175C1863.65 280.837 1846.59 273.598 1832.38 262.246C1818.17 250.894 1807.34 235.864 1801.07 218.788C1798.9 218.929 1796.71 219 1794.51 219.001C1777.75 219.027 1761.25 214.799 1746.57 206.713C1734.79 216.609 1719.89 222.024 1704.51 222.001C1701.52 222.002 1698.53 221.8 1695.56 221.396C1687.64 237.464 1675.6 251.147 1660.67 261.057C1645.74 270.968 1628.46 276.751 1610.57 277.821C1592.69 278.891 1574.84 275.21 1558.84 267.15C1542.84 259.09 1529.25 246.94 1519.46 231.932C1509.06 237.037 1497.54 239.445 1485.97 238.934C1474.39 238.423 1463.13 235.01 1453.22 229.009C1446.71 247.204 1435.04 263.109 1419.64 274.784C1404.24 286.458 1385.77 293.397 1366.49 294.753C1347.22 296.11 1327.96 291.825 1311.08 282.422C1294.19 273.019 1280.41 258.905 1271.41 241.801C1247.13 246.99 1221.78 242.925 1200.34 230.402C1178.89 217.879 1162.9 197.801 1155.49 174.101C1153.78 174.886 1152.04 175.598 1150.26 176.237C1153.32 200.885 1147.05 225.784 1132.68 246.044C1118.32 266.305 1096.89 280.462 1072.62 285.734C1048.35 291.007 1022.99 287.014 1001.51 274.54C980.036 262.066 964 242.013 956.554 218.319C944.986 226.612 931.778 232.333 917.816 235.099C903.854 237.864 889.462 237.61 875.607 234.353C867.515 248.639 855.59 260.377 841.179 268.242C826.767 276.107 810.443 279.786 794.051 278.862C777.659 277.937 761.852 272.448 748.416 263.013C734.979 253.578 724.449 240.574 718.015 225.469C706.059 236.702 691.559 244.87 675.757 249.274C659.954 253.678 643.32 254.188 627.278 250.759C611.235 247.331 596.263 240.065 583.641 229.586C571.02 219.106 561.126 205.725 554.807 190.586C544.103 202.744 529.465 210.75 513.454 213.204C497.442 215.658 481.078 212.403 467.225 204.009C461.997 218.614 453.428 231.794 442.202 242.499C430.976 253.204 417.403 261.137 402.566 265.665C387.73 270.194 372.041 271.192 356.75 268.58C341.459 265.968 326.991 259.818 314.499 250.622C312.002 275.024 300.581 297.644 282.427 314.14C264.274 330.636 240.667 339.846 216.138 340.001C191.61 340.157 167.888 331.248 149.526 314.983C131.164 298.719 119.457 276.246 116.651 251.878V251.879Z" fill="white"/>
</svg>
