<svg xmlns="http://www.w3.org/2000/svg" xmlns:xlink="http://www.w3.org/1999/xlink" width="2210.001" height="484" viewBox="0 0 2210.001 484">
  <defs>
    <filter id="Union_5" x="0" y="90" width="2158.001" height="394" filterUnits="userSpaceOnUse">
      <feOffset dx="1" dy="12" input="SourceAlpha"/>
      <feGaussianBlur stdDeviation="15" result="blur"/>
      <feFlood flood-color="#6d8dad" flood-opacity="0.2"/>
      <feComposite operator="in" in2="blur"/>
      <feComposite in="SourceGraphic"/>
    </filter>
    <filter id="Union_7" x="52.001" y="0" width="2158" height="394" filterUnits="userSpaceOnUse">
      <feOffset dx="1" dy="12" input="SourceAlpha"/>
      <feGaussianBlur stdDeviation="15" result="blur-2"/>
      <feFlood flood-color="#6d8dad" flood-opacity="0.2"/>
      <feComposite operator="in" in2="blur-2"/>
      <feComposite in="SourceGraphic"/>
    </filter>
  </defs>
  <g id="Group_38" data-name="Group 38" transform="translate(119.001 -6875)">
    <g transform="matrix(1, 0, 0, 1, -119, 6875)" filter="url(#Union_5)">
      <path id="Union_5-2" data-name="Union 5" d="M521.547,234.323a99.521,99.521,0,0,1-124.492-6.759,101.527,101.527,0,0,1-170.211-7.858A68.678,68.678,0,0,1,189,231a69.861,69.861,0,0,1-7.187-.37A69.01,69.01,0,0,1,52,198q0-1.333.05-2.654A88.014,88.014,0,1,1,173.65,94.713a69.152,69.152,0,0,1,58.957,13.81,101.51,101.51,0,0,1,151.01-14.355,99.529,99.529,0,0,1,174.836,29.509A99.761,99.761,0,0,1,637.406,107.2a99.531,99.531,0,0,1,185.487,25.832Q823.942,133,825,133a68.7,68.7,0,0,1,40.76,13.32,35.043,35.043,0,0,1,40.683-12.044,101.528,101.528,0,0,1,163.564-35.744A88.034,88.034,0,0,1,1227.6,89.649a100.295,100.295,0,0,1,48.148.583,135.556,135.556,0,0,1,254.939-1.573,99.5,99.5,0,0,1,61.8,38.654,62.569,62.569,0,0,1,70.691-16.67A51.509,51.509,0,0,1,1763,128.5a52.058,52.058,0,0,1-.272,5.325,51.231,51.231,0,0,1,20.264,8.451,69.042,69.042,0,0,1,98.466-50.207,101.508,101.508,0,1,1,6.759,120.043,69.022,69.022,0,0,1-86.409-9.726,51.539,51.539,0,0,1-43.88,33.426,51.519,51.519,0,0,1-96.164-8.894,62.628,62.628,0,0,1-55.964-5.771,99.531,99.531,0,0,1-156.747,42.005,135.786,135.786,0,0,1-120.6-14.814,99.529,99.529,0,0,1-171.388-27.544q-3.009.205-6.068.206a87.614,87.614,0,0,1-53.6-18.2,101.538,101.538,0,0,1-194.395-1.969A35.054,35.054,0,0,1,894,202,69,69,0,0,1,769.373,242.83a99.941,99.941,0,0,1-64.778,7.969,99.538,99.538,0,0,1-183.047-16.477Z" transform="translate(44 123)" fill="#fff"/>
    </g>
    <g transform="matrix(1, 0, 0, 1, -119, 6875)" filter="url(#Union_7)">
      <path id="Union_7-2" data-name="Union 7" d="M521.547,234.323a99.521,99.521,0,0,1-124.492-6.759,101.527,101.527,0,0,1-170.211-7.859A68.678,68.678,0,0,1,189,231a69.861,69.861,0,0,1-7.187-.37A69.01,69.01,0,0,1,52,198q0-1.333.05-2.654A88.014,88.014,0,1,1,173.65,94.713a69.152,69.152,0,0,1,58.957,13.81,101.51,101.51,0,0,1,151.01-14.355,99.529,99.529,0,0,1,174.836,29.509A99.76,99.76,0,0,1,637.406,107.2a99.531,99.531,0,0,1,185.487,25.832Q823.942,133,825,133a68.9,68.9,0,0,1,23.05,3.944,49.031,49.031,0,0,1,71.024-25.052,101.509,101.509,0,0,1,150.932-13.36A88.034,88.034,0,0,1,1227.6,89.649a100.295,100.295,0,0,1,48.148.583,135.556,135.556,0,0,1,254.939-1.573,99.5,99.5,0,0,1,61.8,38.654,62.568,62.568,0,0,1,70.691-16.67A51.509,51.509,0,0,1,1763,128.5a52.055,52.055,0,0,1-.272,5.324,51.208,51.208,0,0,1,20.264,8.451,69.043,69.043,0,0,1,98.467-50.206,101.508,101.508,0,1,1,6.759,120.043,69.022,69.022,0,0,1-86.409-9.725,51.539,51.539,0,0,1-43.88,33.425,51.518,51.518,0,0,1-96.163-8.894,62.628,62.628,0,0,1-55.963-5.771,99.531,99.531,0,0,1-156.747,42.005,135.787,135.787,0,0,1-120.6-14.814,99.528,99.528,0,0,1-171.387-27.544q-3.009.205-6.068.206a87.615,87.615,0,0,1-53.6-18.2,101.538,101.538,0,0,1-194.016-.7A49.254,49.254,0,0,1,894,203h-.007a69,69,0,0,1-124.621,39.83,99.941,99.941,0,0,1-64.778,7.969,99.538,99.538,0,0,1-183.047-16.477Z" transform="translate(2164 337) rotate(180)" fill="#fff"/>
    </g>
  </g>
</svg>
