<svg xmlns="http://www.w3.org/2000/svg" xmlns:xlink="http://www.w3.org/1999/xlink" width="649" height="301" viewBox="0 0 649 301">
  <defs>
    <filter id="Union_42" x="0" y="9" width="649" height="292" filterUnits="userSpaceOnUse">
      <feOffset dx="1" dy="12" input="SourceAlpha"/>
      <feGaussianBlur stdDeviation="15" result="blur"/>
      <feFlood flood-color="#6d8dad" flood-opacity="0.2"/>
      <feComposite operator="in" in2="blur"/>
      <feComposite in="SourceGraphic"/>
    </filter>
    <filter id="Union_43" x="279" y="0" width="302" height="184" filterUnits="userSpaceOnUse">
      <feOffset dx="1" dy="12" input="SourceAlpha"/>
      <feGaussianBlur stdDeviation="15" result="blur-2"/>
      <feFlood flood-color="#6d8dad" flood-opacity="0.2"/>
      <feComposite operator="in" in2="blur-2"/>
      <feComposite in="SourceGraphic"/>
    </filter>
  </defs>
  <g id="Group_35" data-name="Group 35" transform="translate(-80 -2762.428)">
    <g transform="matrix(1, 0, 0, 1, 80, 2762.43)" filter="url(#Union_42)">
      <path id="Union_42-2" data-name="Union 42" d="M73.51,55.627a64.068,64.068,0,1,0-9.544,127.436A63.721,63.721,0,0,0,109.2,164.3a62.687,62.687,0,0,0,113.014,4.119,62.745,62.745,0,0,0,59.814-19.435,43.45,43.45,0,0,0,70.054-.144,63.951,63.951,0,0,0,117.684-10.722A55.558,55.558,0,1,0,452.5,72.3,63.93,63.93,0,0,0,349.642,94.318a43.45,43.45,0,0,0-55.2-8.473A62.681,62.681,0,0,0,198.2,56.42,62.7,62.7,0,0,0,73.51,55.627Z" transform="translate(44 42)" fill="#fff"/>
    </g>
    <g transform="matrix(1, 0, 0, 1, 80, 2762.43)" filter="url(#Union_43)">
      <path id="Union_43-2" data-name="Union 43" d="M104.188,75.02a29.979,29.979,0,0,1-48.854-5.574A29.342,29.342,0,1,1,20.242,27.934a24.931,24.931,0,0,1,48.533.227,30.01,30.01,0,0,1,30.32,2.629q-.035-.723-.035-1.454a29.344,29.344,0,0,1,57.5-8.261,34.384,34.384,0,1,1-3.454,51.3,24.928,24.928,0,0,1-48.916,2.641Z" transform="translate(535 127) rotate(180)" fill="#2c3190"/>
    </g>
    <!-- <text id="View_More..." data-name="View More..." transform="translate(510 2848.428)" fill="#fff" font-size="25" font-family="HennyPenny-Regular, Henny Penny"><tspan x="-71" y="0">View More...</tspan></text> -->
  </g>
</svg>
