<svg xmlns="http://www.w3.org/2000/svg" width="400" height="627.199" viewBox="0 0 400 627.199">
  <g id="Group_49" data-name="Group 49" transform="translate(-230.994 -3750.932)">
    <path id="Path_289" data-name="Path 289" d="M20,0H570l30,400H-10Z" transform="translate(630.994 3760.932) rotate(90)" fill="#2c3190"/>
    <path id="Path_260" data-name="Path 260" d="M-30,0H261.985L226.89,67.381H-15.962Z" transform="translate(326.492 4310.75)" fill="#2c3190"/>
    <g id="Path_261" data-name="Path 261" transform="translate(333.512 4303.731)" fill="#fff">
      <path d="M 226.5868835449219 66.88105773925781 L -15.55569553375244 66.88105773925781 L -29.38507652282715 0.4999855160713196 L 261.1603698730469 0.4999855160713196 L 226.5868835449219 66.88105773925781 Z" stroke="none"/>
      <path d="M -28.77023315429688 0.9999847412109375 L -15.14915466308594 66.38105773925781 L 226.2835540771484 66.38105773925781 L 260.336181640625 0.9999847412109375 L -28.77023315429688 0.9999847412109375 M -30 -1.52587890625e-05 L 261.9845275878906 -1.52587890625e-05 L 226.8902282714844 67.38105773925781 L -15.9622802734375 67.38105773925781 L -30 -1.52587890625e-05 Z" stroke="none" fill="#2c3190"/>
    </g>
    <text id="_1st_April" data-name="1st April" transform="translate(438.492 4348.731)" fill="#ff18ef" font-size="27" font-family="Moreland-Regular, Moreland"><tspan x="-49" y="0">1st April</tspan></text>
  </g>
</svg>
