<svg xmlns="http://www.w3.org/2000/svg" xmlns:xlink="http://www.w3.org/1999/xlink" width="1920" height="920" viewBox="0 0 1920 920">
  <defs>
    <clipPath id="clip-path">
      <rect id="Rectangle_201" data-name="Rectangle 201" width="1920" height="920" transform="translate(0 -23)" fill="#a9caff"/>
    </clipPath>
    <filter id="Union_70" x="-89" y="-6.958" width="2109.334" height="1022.57" filterUnits="userSpaceOnUse">
      <feOffset dy="-12" input="SourceAlpha"/>
      <feGaussianBlur stdDeviation="10" result="blur"/>
      <feFlood flood-color="#301d6f" flood-opacity="0.2"/>
      <feComposite operator="in" in2="blur"/>
      <feComposite in="SourceGraphic"/>
    </filter>
  </defs>
  <g id="Mask_Group_14" data-name="Mask Group 14" transform="translate(0 23)" clip-path="url(#clip-path)">
    <g transform="matrix(1, 0, 0, 1, 0, -23)" filter="url(#Union_70)">
      <path id="Union_70-2" data-name="Union 70" d="M-13863.062,954.848a224.067,224.067,0,0,1-88.721-46.888h-7.345a66.024,66.024,0,0,1-68.105,21.859,65.708,65.708,0,0,1-33.921-21.859h-408.258a46.7,46.7,0,0,1-14.592,0h-981.512a95.423,95.423,0,0,1-19.483,2,95.44,95.44,0,0,1-19.484-2H-15570V857.429a94.594,94.594,0,0,1-10-42.468,94.539,94.539,0,0,1,14.293-50.136A168.675,168.675,0,0,1-15629,632.959a168.562,168.562,0,0,1,54.8-124.578,91.811,91.811,0,0,1-32.8-70.422,91.8,91.8,0,0,1,32.65-70.3,40.957,40.957,0,0,1-17.651-33.7,40.9,40.9,0,0,1,13.407-30.328A135.532,135.532,0,0,1-15616,209.96a136,136,0,0,1,136-136,136,136,0,0,1,136,136,135.412,135.412,0,0,1-30.277,85.555,40.935,40.935,0,0,1,14.277-2.553,41,41,0,0,1,41,41,40.921,40.921,0,0,1-15.078,31.763A64.009,64.009,0,0,1-15280,428.961a63.894,63.894,0,0,1-24.119,50.057A45.8,45.8,0,0,1-15298,501.96c0,1.251-.047,2.491-.149,3.718A45.874,45.874,0,0,1-15280,501.96a46.021,46.021,0,0,1,43.636,31.395,40.861,40.861,0,0,1,16.364-3.4,41,41,0,0,1,41,41c0,.169,0,.337,0,.506a48.5,48.5,0,0,1,7-.506,47.792,47.792,0,0,1,30.3,10.771,76.682,76.682,0,0,1,46.7-15.768,77,77,0,0,1,77,77,76.649,76.649,0,0,1-9.642,37.333,58.872,58.872,0,0,1,21.64,45.664,59.132,59.132,0,0,1-1.479,13.183A47.016,47.016,0,0,1-14971,784.959c0,.7-.016,1.4-.047,2.1a29.981,29.981,0,0,1,11.05-2.1,30,30,0,0,1,26.641,16.192A58.927,58.927,0,0,1-14885,775.961a59.012,59.012,0,0,1,53.689,34.5,44.794,44.794,0,0,1,23.311-6.5,44.872,44.872,0,0,1,31.928,13.289A41.013,41.013,0,0,1-14736,784.959a41,41,0,0,1,40.694,35.964,40.838,40.838,0,0,1,21.307-5.962,40.887,40.887,0,0,1,30.018,13.069,29.946,29.946,0,0,1,10.982-2.071,29.853,29.853,0,0,1,13.826,3.369,59.03,59.03,0,0,1,57.173-44.37,59.019,59.019,0,0,1,55.843,39.91,46.933,46.933,0,0,1,41.589-8.743,46.736,46.736,0,0,1,17.674,9.068,66.134,66.134,0,0,1,1.428-6.715,64.728,64.728,0,0,1,79.275-45.766q2.711.724,5.307,1.663c.5-3.036,1.149-6.08,1.961-9.112a92.734,92.734,0,0,1,60.114-63.974,24.007,24.007,0,0,1-8.621-25.3,24.3,24.3,0,0,1,2.086-5.24,87.5,87.5,0,0,1-10.335-69.187,87.719,87.719,0,0,1,107.438-62.028,87.317,87.317,0,0,1,37.271,20.69,82.992,82.992,0,0,1,99.012-58.647,91.589,91.589,0,0,1-2.562-55.7,92.013,92.013,0,0,1,70.678-66.394,63.71,63.71,0,0,1-1.891-39.035,64,64,0,0,1,78.384-45.252,64.151,64.151,0,0,1,13.3,5.2,46.071,46.071,0,0,1,42.205-25.252,46.2,46.2,0,0,1,1.577-12.081,46,46,0,0,1,56.336-32.524c.06.016.114.027.169.043a95.848,95.848,0,0,1,2.715-14.509,95.351,95.351,0,0,1,8.279-20.8,40.919,40.919,0,0,1-6.334-34.572,41,41,0,0,1,49.237-29.245,76.965,76.965,0,0,1-19.918-74.38,77,77,0,0,1,94.306-54.446,77,77,0,0,1,54.446,94.305c-.1.377-.2.753-.31,1.13a47.967,47.967,0,0,1,11.084,44.982,47.942,47.942,0,0,1-29.731,32.607,94.924,94.924,0,0,1,22.468,89.591,94.6,94.6,0,0,1-20.075,37.78,169.061,169.061,0,0,1,62.126,179.209,168.26,168.26,0,0,1-63.644,92.8,224.964,224.964,0,0,1,61.616,220.7A223.91,223.91,0,0,1-13650,900.816v7.144h-7.917a225.386,225.386,0,0,1-146.77,54.611A225.233,225.233,0,0,1-13863.062,954.848Zm-355.979-243.638c.412.263.824.533,1.232.8.1-.345.2-.686.3-1.028Q-14218.275,711.1-14219.041,711.211Z" transform="translate(15570 35.04)" fill="#301d6f"/>
    </g>
  </g>
</svg>
