<svg xmlns="http://www.w3.org/2000/svg" xmlns:xlink="http://www.w3.org/1999/xlink" width="1589" height="774.001" viewBox="0 0 1589 774.001">
  <defs>
    <filter id="Union_71" x="0" y="0" width="1589" height="774.001" filterUnits="userSpaceOnUse">
      <feOffset dy="-12" input="SourceAlpha"/>
      <feGaussianBlur stdDeviation="10" result="blur"/>
      <feFlood flood-color="#29469e" flood-opacity="0.2"/>
      <feComposite operator="in" in2="blur"/>
      <feComposite in="SourceGraphic"/>
    </filter>
  </defs>
  <g transform="matrix(1, 0, 0, 1, 0, 0)" filter="url(#Union_71)">
    <path id="Union_71-2" data-name="Union 71" d="M-15644,714V573.7a97.947,97.947,0,0,1-47-83.7,97.768,97.768,0,0,1,34.182-74.374A148.634,148.634,0,0,1-15706,305a149,149,0,0,1,149-149,149,149,0,0,1,149,149,149.978,149.978,0,0,1-2.241,25.889A98.822,98.822,0,0,1-15397,330a98,98,0,0,1,98,98,97.762,97.762,0,0,1-6.653,35.563,67.2,67.2,0,0,1,31.042,24.731A97.563,97.563,0,0,1-15219,471a98.03,98.03,0,0,1,91.042,61.665A66.914,66.914,0,0,1-15073,504a67.027,67.027,0,0,1,63.3,44.977A66.749,66.749,0,0,1-14982,543a66.826,66.826,0,0,1,49.405,21.743A52.764,52.764,0,0,1-14905,557a52.921,52.921,0,0,1,17.073,2.81q-.072-1.4-.073-2.81a53,53,0,0,1,53-53,52.78,52.78,0,0,1,33.51,11.936,98.02,98.02,0,0,1,90.708-87.705A149.218,149.218,0,0,1-14716,389a149,149,0,0,1,149-149,148.311,148.311,0,0,1,78.257,22.181,97.747,97.747,0,0,1,58.923-29.477A141.9,141.9,0,0,1-14462,142.5,142.5,142.5,0,0,1-14319.5,0,142.5,142.5,0,0,1-14177,142.5a142.518,142.518,0,0,1-80.895,128.531L-14268,714Z" transform="translate(15736 42)" fill="#29469e"/>
  </g>
</svg>
