<svg xmlns="http://www.w3.org/2000/svg" xmlns:xlink="http://www.w3.org/1999/xlink" width="2084" height="430" viewBox="0 0 2084 430">
  <defs>
    <filter id="Union_62" x="0" y="0" width="2084" height="430" filterUnits="userSpaceOnUse">
      <feOffset dx="1" dy="-12" input="SourceAlpha"/>
      <feGaussianBlur stdDeviation="15" result="blur"/>
      <feFlood flood-color="#6d8dad" flood-opacity="0.2"/>
      <feComposite operator="in" in2="blur"/>
      <feComposite in="SourceGraphic"/>
    </filter>
  </defs>
  <g transform="matrix(1, 0, 0, 1, 0, 0)" filter="url(#Union_62)">
    <path id="Union_62-2" data-name="Union 62" d="M116.644,251.878A101.507,101.507,0,1,1,101.5,50a101.193,101.193,0,0,1,71.768,29.726A99.54,99.54,0,0,1,352.594,73.2,99.681,99.681,0,0,1,447.5,103.989a69.011,69.011,0,0,1,111.158.228A101.538,101.538,0,0,1,745.4,121.2,87.617,87.617,0,0,1,799,103q3.061,0,6.068.206A99.538,99.538,0,0,1,957.482,57.358a88.036,88.036,0,0,1,162.633-5.819A65.112,65.112,0,0,1,1128.5,51a64.377,64.377,0,0,1,50.471,24.335A99.523,99.523,0,0,1,1338.594,98.2a99.679,99.679,0,0,1,94.911,30.789,69.026,69.026,0,0,1,92.712-17.1,101.507,101.507,0,0,1,145.047-11.841,65.077,65.077,0,0,1,27.811-8.825,99.539,99.539,0,0,1,188.859-6.009Q1891.191,85,1894.5,85a99.5,99.5,0,1,1-93.435,133.787q-3.257.212-6.565.213a99.049,99.049,0,0,1-47.938-12.288A65.241,65.241,0,0,1,1704.5,222a66.085,66.085,0,0,1-8.943-.605,101.534,101.534,0,0,1-176.1,10.536,69.105,69.105,0,0,1-66.241-2.923A99.54,99.54,0,0,1,1271.406,241.8a99.649,99.649,0,0,1-115.927-67.7q-2.554,1.178-5.226,2.136a99.52,99.52,0,0,1-193.706,42.082A99.753,99.753,0,0,1,875.6,234.352a88.034,88.034,0,0,1-157.592-8.884A101.527,101.527,0,0,1,554.8,190.585a69.028,69.028,0,0,1-87.582,13.423,99.538,99.538,0,0,1-152.726,46.613,99.509,99.509,0,0,1-197.848,1.256Z" transform="translate(44 57)" fill="#fff"/>
  </g>
</svg>
