<svg xmlns="http://www.w3.org/2000/svg" xmlns:xlink="http://www.w3.org/1999/xlink" width="649" height="292" viewBox="0 0 649 292">
  <defs>
    <filter id="Union_28" x="0" y="0" width="649" height="292" filterUnits="userSpaceOnUse">
      <feOffset dx="1" dy="12" input="SourceAlpha"/>
      <feGaussianBlur stdDeviation="15" result="blur"/>
      <feFlood flood-color="#6d8dad" flood-opacity="0.2"/>
      <feComposite operator="in" in2="blur"/>
      <feComposite in="SourceGraphic"/>
    </filter>
  </defs>
  <g transform="matrix(1, 0, 0, 1, 0, 0)" filter="url(#Union_28)">
    <path id="Union_28-2" data-name="Union 28" d="M109.2,164.3A64.019,64.019,0,1,1,63.967,54.919a64.392,64.392,0,0,1,9.544.708A62.7,62.7,0,0,1,198.2,56.42a62.68,62.68,0,0,1,96.249,29.425,43.451,43.451,0,0,1,55.2,8.473A63.93,63.93,0,0,1,452.5,72.3a55.535,55.535,0,1,1,17.264,65.817,63.958,63.958,0,0,1-93.143,36.321,30.72,30.72,0,0,1-59.506-7.787H317a43.4,43.4,0,0,1-34.974-17.669,62.742,62.742,0,0,1-59.814,19.436A62.688,62.688,0,0,1,109.2,164.3Z" transform="translate(44 33)" fill="#fff"/>
  </g>
</svg>
