<svg xmlns="http://www.w3.org/2000/svg" xmlns:xlink="http://www.w3.org/1999/xlink" width="302" height="184" viewBox="0 0 302 184">
  <defs>
    <filter id="Union_29" x="0" y="0" width="302" height="184" filterUnits="userSpaceOnUse">
      <feOffset dx="1" dy="12" input="SourceAlpha"/>
      <feGaussianBlur stdDeviation="15" result="blur"/>
      <feFlood flood-color="#6d8dad" flood-opacity="0.2"/>
      <feComposite operator="in" in2="blur"/>
      <feComposite in="SourceGraphic"/>
    </filter>
  </defs>
  <g transform="matrix(1, 0, 0, 1, 0, 0)" filter="url(#Union_29)">
    <path id="Union_29-2" data-name="Union 29" d="M104.188,75.02a29.979,29.979,0,0,1-48.854-5.574A29.342,29.342,0,1,1,20.242,27.934a24.931,24.931,0,0,1,48.533.227,30.01,30.01,0,0,1,30.32,2.629q-.035-.723-.035-1.454a29.344,29.344,0,0,1,57.5-8.261,34.384,34.384,0,1,1-3.454,51.3,24.928,24.928,0,0,1-48.916,2.641Z" transform="translate(256 127) rotate(180)" fill="#2c3190"/>
  </g>
</svg>
