<svg xmlns="http://www.w3.org/2000/svg" xmlns:xlink="http://www.w3.org/1999/xlink" width="2158" height="394" viewBox="0 0 2158 394">
  <defs>
    <filter id="Union_61" x="0" y="0" width="2158" height="394" filterUnits="userSpaceOnUse">
      <feOffset dx="1" dy="12" input="SourceAlpha"/>
      <feGaussianBlur stdDeviation="15" result="blur"/>
      <feFlood flood-color="#6d8dad" flood-opacity="0.2"/>
      <feComposite operator="in" in2="blur"/>
      <feComposite in="SourceGraphic"/>
    </filter>
  </defs>
  <g transform="matrix(1, 0, 0, 1, 0, 0)" filter="url(#Union_61)">
    <path id="Union_61-2" data-name="Union 61" d="M521.547,234.323a99.521,99.521,0,0,1-124.492-6.759,101.527,101.527,0,0,1-170.211-7.859A68.678,68.678,0,0,1,189,231a69.861,69.861,0,0,1-7.187-.37A69.01,69.01,0,0,1,52,198q0-1.333.05-2.654A88.014,88.014,0,1,1,173.65,94.713a69.152,69.152,0,0,1,58.957,13.81,101.51,101.51,0,0,1,151.01-14.355,99.529,99.529,0,0,1,174.836,29.509A99.76,99.76,0,0,1,637.406,107.2a99.531,99.531,0,0,1,185.487,25.832Q823.942,133,825,133a68.9,68.9,0,0,1,23.05,3.944,49.031,49.031,0,0,1,71.024-25.052,101.509,101.509,0,0,1,150.932-13.36A88.034,88.034,0,0,1,1227.6,89.649a100.295,100.295,0,0,1,48.148.583,135.556,135.556,0,0,1,254.939-1.573,99.5,99.5,0,0,1,61.8,38.654,62.568,62.568,0,0,1,70.691-16.67A51.509,51.509,0,0,1,1763,128.5a52.055,52.055,0,0,1-.272,5.324,51.208,51.208,0,0,1,20.264,8.451,69.043,69.043,0,0,1,98.467-50.206,101.508,101.508,0,1,1,6.759,120.043,69.022,69.022,0,0,1-86.409-9.725,51.539,51.539,0,0,1-43.88,33.425,51.518,51.518,0,0,1-96.163-8.894,62.628,62.628,0,0,1-55.963-5.771,99.531,99.531,0,0,1-156.747,42.005,135.787,135.787,0,0,1-120.6-14.814,99.528,99.528,0,0,1-171.387-27.544q-3.009.205-6.068.206a87.615,87.615,0,0,1-53.6-18.2,101.538,101.538,0,0,1-194.016-.7A49.254,49.254,0,0,1,894,203h-.007a69,69,0,0,1-124.621,39.83,99.941,99.941,0,0,1-64.778,7.969,99.538,99.538,0,0,1-183.047-16.477Z" transform="translate(2112 337) rotate(180)" fill="#fff"/>
  </g>
</svg>
